<svg width="290" height="290" viewBox="0 0 290 290" fill="none" xmlns="http://www.w3.org/2000/svg">
<g clip-path="url(#clip0_427_129)">
<path d="M276 145C276 217.349 217.349 276 145 276C72.6507 276 14 217.349 14 145C14 72.6507 72.6507 14 145 14C217.349 14 276 72.6507 276 145Z" stroke="#FF7959" stroke-width="28"/>
<path d="M99.083 205.9V217.983H123.25V205.9H99.083ZM123.25 77.3333C123.25 70.6599 117.84 65.25 111.166 65.25C104.492 65.25 99.083 70.6599 99.083 77.3333H123.25ZM123.25 205.9V77.3333H99.083V205.9H123.25Z" fill="#FF7959"/>
<path d="M216.826 176.169L113.1 79.2666" stroke="#FF7959" stroke-width="25" stroke-linecap="round"/>
<path d="M216.533 189.95C223.207 189.95 228.616 184.54 228.616 177.867C228.616 171.193 223.207 165.783 216.533 165.783V189.95ZM216.533 165.783H134.366V189.95H216.533V165.783Z" fill="#FF7959"/>
</g>
<defs>
<clipPath id="clip0_427_129">
<rect width="290" height="290" fill="white"/>
</clipPath>
</defs>
</svg>
